<svg width="145" height="38" viewBox="0 0 145 38" fill="none" xmlns="http://www.w3.org/2000/svg">
<g filter="url(#filter0_dd_1287_2295)">
<g clip-path="url(#clip0_1287_2295)">
<path d="M3 14.8C3 10.3196 3 8.07937 3.87195 6.36808C4.63893 4.86278 5.86278 3.63893 7.36808 2.87195C9.07937 2 11.3196 2 15.8 2H22.2C26.6804 2 28.9206 2 30.6319 2.87195C32.1372 3.63893 33.3611 4.86278 34.1281 6.36808C35 8.07937 35 10.3196 35 14.8V21.2C35 25.6804 35 27.9206 34.1281 29.6319C33.3611 31.1372 32.1372 32.3611 30.6319 33.1281C28.9206 34 26.6804 34 22.2 34H15.8C11.3196 34 9.07937 34 7.36808 33.1281C5.86278 32.3611 4.63893 31.1372 3.87195 29.6319C3 27.9206 3 25.6804 3 21.2V14.8Z" fill="white"/>
<path d="M3 14.8C3 10.3196 3 8.07937 3.87195 6.36808C4.63893 4.86278 5.86278 3.63893 7.36808 2.87195C9.07937 2 11.3196 2 15.8 2H22.2C26.6804 2 28.9206 2 30.6319 2.87195C32.1372 3.63893 33.3611 4.86278 34.1281 6.36808C35 8.07937 35 10.3196 35 14.8V21.2C35 25.6804 35 27.9206 34.1281 29.6319C33.3611 31.1372 32.1372 32.3611 30.6319 33.1281C28.9206 34 26.6804 34 22.2 34H15.8C11.3196 34 9.07937 34 7.36808 33.1281C5.86278 32.3611 4.63893 31.1372 3.87195 29.6319C3 27.9206 3 25.6804 3 21.2V14.8Z" fill="url(#paint0_linear_1287_2295)"/>
<path fill-rule="evenodd" clip-rule="evenodd" d="M18.9998 4.03885C11.2892 4.03885 5.03861 10.2895 5.03861 18C5.03861 25.7106 11.2892 31.9612 18.9998 31.9612C26.7103 31.9612 32.9609 25.7106 32.9609 18C32.9609 10.2895 26.7103 4.03885 18.9998 4.03885ZM4.96094 18C4.96094 10.2466 11.2463 3.96118 18.9998 3.96118C26.7532 3.96118 33.0386 10.2466 33.0386 18C33.0386 25.7535 26.7532 32.0389 18.9998 32.0389C11.2463 32.0389 4.96094 25.7535 4.96094 18Z" fill="#D0D5DD"/>
<path fill-rule="evenodd" clip-rule="evenodd" d="M19 14.0779C16.8338 14.0779 15.0777 15.834 15.0777 18.0002C15.0777 20.1665 16.8338 21.9226 19 21.9226C21.1662 21.9226 22.9223 20.1665 22.9223 18.0002C22.9223 15.834 21.1662 14.0779 19 14.0779ZM15 18.0002C15 15.7911 16.7909 14.0002 19 14.0002C21.2091 14.0002 23 15.7911 23 18.0002C23 20.2094 21.2091 22.0002 19 22.0002C16.7909 22.0002 15 20.2094 15 18.0002Z" fill="#D0D5DD"/>
<path fill-rule="evenodd" clip-rule="evenodd" d="M19 15.3201C17.52 15.3201 16.3203 16.5198 16.3203 17.9997C16.3203 19.4796 17.52 20.6793 19 20.6793C20.4799 20.6793 21.6796 19.4796 21.6796 17.9997C21.6796 16.5198 20.4799 15.3201 19 15.3201ZM16.2427 17.9997C16.2427 16.4769 17.4772 15.2424 19 15.2424C20.5228 15.2424 21.7572 16.4769 21.7572 17.9997C21.7572 19.5225 20.5228 20.757 19 20.757C17.4772 20.757 16.2427 19.5225 16.2427 17.9997Z" fill="#D0D5DD"/>
<path d="M18.9609 2H19.0386V34H18.9609V2Z" fill="#D0D5DD"/>
<path d="M35 17.9609L35 18.0386L3 18.0386L3 17.9609L35 17.9609Z" fill="#D0D5DD"/>
<path d="M29.6021 2H29.6797V34H29.6021V2Z" fill="#D0D5DD"/>
<path d="M13.6406 2H13.7183V34H13.6406V2Z" fill="#D0D5DD"/>
<path d="M24.2817 2H24.3594V34H24.2817V2Z" fill="#D0D5DD"/>
<path d="M8.32031 2H8.39798V34H8.32031V2Z" fill="#D0D5DD"/>
<path d="M35 28.6016L35 28.6792L3 28.6792L3 28.6016L35 28.6016Z" fill="#D0D5DD"/>
<path d="M35 12.6406L35 12.7183L3 12.7183L3 12.6406L35 12.6406Z" fill="#D0D5DD"/>
<path d="M35 23.2812L35 23.3589L3 23.3589L3 23.2812L35 23.2812Z" fill="#D0D5DD"/>
<path d="M35 7.32031L35 7.39798L3 7.39798L3 7.32031L35 7.32031Z" fill="#D0D5DD"/>
<g filter="url(#filter1_dd_1287_2295)">
<circle cx="19" cy="18" r="8" fill="url(#paint1_linear_1287_2295)"/>
</g>
<g filter="url(#filter2_b_1287_2295)">
<path d="M3 18H35V21.2C35 25.6804 35 27.9206 34.1281 29.6319C33.3611 31.1372 32.1372 32.3611 30.6319 33.1281C28.9206 34 26.6804 34 22.2 34H15.8C11.3196 34 9.07937 34 7.36808 33.1281C5.86278 32.3611 4.63893 31.1372 3.87195 29.6319C3 27.9206 3 25.6804 3 21.2V18Z" fill="white" fill-opacity="0.2"/>
</g>
</g>
<path d="M3.1 14.8C3.1 12.5581 3.10008 10.8828 3.20866 9.55376C3.31715 8.22593 3.53345 7.25268 3.96105 6.41348C4.71845 4.92699 5.92699 3.71845 7.41348 2.96105C8.25268 2.53345 9.22593 2.31715 10.5538 2.20866C11.8828 2.10008 13.5581 2.1 15.8 2.1H22.2C24.4419 2.1 26.1172 2.10008 27.4462 2.20866C28.7741 2.31715 29.7473 2.53345 30.5865 2.96105C32.073 3.71845 33.2816 4.92699 34.039 6.41348C34.4665 7.25268 34.6828 8.22593 34.7913 9.55376C34.8999 10.8828 34.9 12.5581 34.9 14.8V21.2C34.9 23.4419 34.8999 25.1172 34.7913 26.4462C34.6828 27.7741 34.4665 28.7473 34.039 29.5865C33.2816 31.073 32.073 32.2816 30.5865 33.039C29.7473 33.4665 28.7741 33.6828 27.4462 33.7913C26.1172 33.8999 24.4419 33.9 22.2 33.9H15.8C13.5581 33.9 11.8828 33.8999 10.5538 33.7913C9.22593 33.6828 8.25268 33.4665 7.41348 33.039C5.92699 32.2816 4.71845 31.073 3.96105 29.5865C3.53345 28.7473 3.31715 27.7741 3.20866 26.4462C3.10008 25.1172 3.1 23.4419 3.1 21.2V14.8Z" stroke="#D0D5DD" stroke-width="0.2"/>
</g>
<path d="M54.0035 10.4545H56.6384V19.9574C56.6384 20.999 56.3922 21.9152 55.8998 22.7059C55.4121 23.4967 54.7256 24.1146 53.8402 24.5596C52.9547 25 51.9202 25.2202 50.7365 25.2202C49.548 25.2202 48.5111 25 47.6257 24.5596C46.7402 24.1146 46.0537 23.4967 45.566 22.7059C45.0783 21.9152 44.8345 20.999 44.8345 19.9574V10.4545H47.4694V19.7372C47.4694 20.3433 47.602 20.883 47.8671 21.3565C48.137 21.83 48.5158 22.2017 49.0035 22.4716C49.4912 22.7367 50.0688 22.8693 50.7365 22.8693C51.4041 22.8693 51.9817 22.7367 52.4694 22.4716C52.9618 22.2017 53.3406 21.83 53.6058 21.3565C53.8709 20.883 54.0035 20.3433 54.0035 19.7372V10.4545Z" fill="#101828"/>
<path d="M61.9598 18.6079V25H59.3888V14.0909H61.8462V15.9446H61.974C62.225 15.3338 62.6251 14.8485 63.1743 14.4886C63.7283 14.1288 64.4125 13.9488 65.2269 13.9488C65.9797 13.9488 66.6355 14.1098 67.1942 14.4318C67.7577 14.7538 68.1933 15.2202 68.501 15.8309C68.8135 16.4417 68.9674 17.1827 68.9627 18.054V25H66.3916V18.4517C66.3916 17.7225 66.2023 17.152 65.8235 16.74C65.4494 16.3281 64.9309 16.1221 64.2681 16.1221C63.8183 16.1221 63.4182 16.2216 63.0678 16.4204C62.7221 16.6146 62.4499 16.8963 62.251 17.2656C62.0569 17.6349 61.9598 18.0824 61.9598 18.6079Z" fill="#101828"/>
<path d="M77.0238 14.0909V16.0795H70.7524V14.0909H77.0238ZM72.3007 11.4773H74.8718V21.7187C74.8718 22.0644 74.9238 22.3295 75.028 22.5142C75.1369 22.6941 75.279 22.8172 75.4541 22.8835C75.6293 22.9498 75.8235 22.9829 76.0365 22.9829C76.1975 22.9829 76.3443 22.9711 76.4769 22.9474C76.6142 22.9238 76.7184 22.9024 76.7894 22.8835L77.2226 24.8934C77.0853 24.9408 76.8888 24.9929 76.6331 25.0497C76.3822 25.1065 76.0744 25.1397 75.7098 25.1491C75.0659 25.1681 74.4859 25.071 73.9698 24.8579C73.4537 24.6401 73.0441 24.304 72.7411 23.8494C72.4428 23.3949 72.296 22.8267 72.3007 22.1449V11.4773Z" fill="#101828"/>
<path d="M79.174 25V14.0909H81.745V25H79.174ZM80.4666 12.5426C80.0594 12.5426 79.709 12.4077 79.4154 12.1378C79.1219 11.8631 78.9751 11.5341 78.9751 11.1506C78.9751 10.7623 79.1219 10.4332 79.4154 10.1633C79.709 9.88871 80.0594 9.7514 80.4666 9.7514C80.8785 9.7514 81.2289 9.88871 81.5177 10.1633C81.8113 10.4332 81.9581 10.7623 81.9581 11.1506C81.9581 11.5341 81.8113 11.8631 81.5177 12.1378C81.2289 12.4077 80.8785 12.5426 80.4666 12.5426Z" fill="#101828"/>
<path d="M89.8363 14.0909V16.0795H83.5649V14.0909H89.8363ZM85.1132 11.4773H87.6843V21.7187C87.6843 22.0644 87.7363 22.3295 87.8405 22.5142C87.9494 22.6941 88.0915 22.8172 88.2666 22.8835C88.4418 22.9498 88.636 22.9829 88.849 22.9829C89.01 22.9829 89.1568 22.9711 89.2894 22.9474C89.4267 22.9238 89.5309 22.9024 89.6019 22.8835L90.0351 24.8934C89.8978 24.9408 89.7013 24.9929 89.4456 25.0497C89.1947 25.1065 88.8869 25.1397 88.5223 25.1491C87.8784 25.1681 87.2984 25.071 86.7823 24.8579C86.2662 24.6401 85.8566 24.304 85.5536 23.8494C85.2553 23.3949 85.1085 22.8267 85.1132 22.1449V11.4773Z" fill="#101828"/>
<path d="M94.7919 10.4545V25H92.2208V10.4545H94.7919Z" fill="#101828"/>
<path d="M102.265 25.2131C101.171 25.2131 100.227 24.9858 99.4314 24.5312C98.6407 24.072 98.0323 23.4233 97.6061 22.5852C97.18 21.7424 96.9669 20.7505 96.9669 19.6094C96.9669 18.4872 97.18 17.5024 97.6061 16.6548C98.037 15.8025 98.6383 15.1397 99.4101 14.6662C100.182 14.188 101.089 13.9488 102.13 13.9488C102.803 13.9488 103.437 14.0577 104.034 14.2756C104.635 14.4886 105.165 14.8201 105.625 15.2699C106.089 15.7197 106.453 16.2926 106.718 16.9886C106.984 17.6799 107.116 18.5038 107.116 19.4602V20.2486H98.1743V18.5156H104.652C104.647 18.0232 104.54 17.5852 104.332 17.2017C104.124 16.8134 103.832 16.508 103.458 16.2855C103.089 16.063 102.658 15.9517 102.166 15.9517C101.64 15.9517 101.179 16.0795 100.781 16.3352C100.383 16.5862 100.073 16.9176 99.8505 17.3295C99.6326 17.7367 99.5214 18.1842 99.5166 18.6719V20.1846C99.5166 20.8191 99.6327 21.3636 99.8647 21.8182C100.097 22.268 100.421 22.6136 100.838 22.8551C101.254 23.0918 101.742 23.2102 102.301 23.2102C102.675 23.2102 103.013 23.1581 103.316 23.054C103.619 22.9451 103.882 22.7864 104.105 22.5781C104.327 22.3698 104.495 22.1117 104.609 21.804L107.01 22.0738C106.858 22.7083 106.569 23.2623 106.143 23.7358C105.722 24.2045 105.182 24.5691 104.524 24.8295C103.866 25.0852 103.113 25.2131 102.265 25.2131Z" fill="#101828"/>
<path d="M113.339 25.1917C112.482 25.1917 111.715 24.9716 111.038 24.5312C110.361 24.0909 109.826 23.4517 109.433 22.6136C109.04 21.7756 108.844 20.7576 108.844 19.5596C108.844 18.3475 109.043 17.3248 109.44 16.4915C109.843 15.6534 110.385 15.0213 111.067 14.5952C111.749 14.1643 112.508 13.9488 113.347 13.9488C113.986 13.9488 114.511 14.0577 114.923 14.2756C115.335 14.4886 115.662 14.7467 115.903 15.0497C116.145 15.348 116.332 15.6297 116.464 15.8949H116.571V10.4545H119.149V25H116.621V23.2812H116.464C116.332 23.5464 116.14 23.8281 115.889 24.1264C115.638 24.42 115.307 24.6709 114.895 24.8792C114.483 25.0876 113.964 25.1917 113.339 25.1917ZM114.057 23.0824C114.601 23.0824 115.065 22.9356 115.449 22.642C115.832 22.3437 116.124 21.9294 116.322 21.3991C116.521 20.8688 116.621 20.2509 116.621 19.5454C116.621 18.8399 116.521 18.2268 116.322 17.7059C116.128 17.1851 115.839 16.7803 115.456 16.4915C115.077 16.2026 114.611 16.0582 114.057 16.0582C113.484 16.0582 113.006 16.2074 112.622 16.5057C112.239 16.804 111.95 17.2159 111.756 17.7415C111.562 18.267 111.464 18.8684 111.464 19.5454C111.464 20.2273 111.562 20.8357 111.756 21.3707C111.954 21.901 112.246 22.3201 112.629 22.6278C113.017 22.9309 113.493 23.0824 114.057 23.0824Z" fill="#101828"/>
<path d="M136.132 10.4545H138.767V19.9574C138.767 20.999 138.521 21.9152 138.029 22.7059C137.541 23.4967 136.854 24.1146 135.969 24.5596C135.084 25 134.049 25.2202 132.865 25.2202C131.677 25.2202 130.64 25 129.755 24.5596C128.869 24.1146 128.183 23.4967 127.695 22.7059C127.207 21.9152 126.963 20.999 126.963 19.9574V10.4545H129.598V19.7372C129.598 20.3433 129.731 20.883 129.996 21.3565C130.266 21.83 130.645 22.2017 131.132 22.4716C131.62 22.7367 132.198 22.8693 132.865 22.8693C133.533 22.8693 134.111 22.7367 134.598 22.4716C135.091 22.2017 135.47 21.83 135.735 21.3565C136 20.883 136.132 20.3433 136.132 19.7372V10.4545Z" fill="#101828"/>
<path d="M144.266 10.4545V25H141.631V10.4545H144.266Z" fill="#101828"/>
<defs>
<filter id="filter0_dd_1287_2295" x="0" y="0" width="38" height="38" filterUnits="userSpaceOnUse" color-interpolation-filters="sRGB">
<feFlood flood-opacity="0" result="BackgroundImageFix"/>
<feColorMatrix in="SourceAlpha" type="matrix" values="0 0 0 0 0 0 0 0 0 0 0 0 0 0 0 0 0 0 127 0" result="hardAlpha"/>
<feOffset dy="1"/>
<feGaussianBlur stdDeviation="1"/>
<feColorMatrix type="matrix" values="0 0 0 0 0.0627451 0 0 0 0 0.0941176 0 0 0 0 0.156863 0 0 0 0.06 0"/>
<feBlend mode="normal" in2="BackgroundImageFix" result="effect1_dropShadow_1287_2295"/>
<feColorMatrix in="SourceAlpha" type="matrix" values="0 0 0 0 0 0 0 0 0 0 0 0 0 0 0 0 0 0 127 0" result="hardAlpha"/>
<feOffset dy="1"/>
<feGaussianBlur stdDeviation="1.5"/>
<feColorMatrix type="matrix" values="0 0 0 0 0.0627451 0 0 0 0 0.0941176 0 0 0 0 0.156863 0 0 0 0.1 0"/>
<feBlend mode="normal" in2="effect1_dropShadow_1287_2295" result="effect2_dropShadow_1287_2295"/>
<feBlend mode="normal" in="SourceGraphic" in2="effect2_dropShadow_1287_2295" result="shape"/>
</filter>
<filter id="filter1_dd_1287_2295" x="8" y="8" width="22" height="22" filterUnits="userSpaceOnUse" color-interpolation-filters="sRGB">
<feFlood flood-opacity="0" result="BackgroundImageFix"/>
<feColorMatrix in="SourceAlpha" type="matrix" values="0 0 0 0 0 0 0 0 0 0 0 0 0 0 0 0 0 0 127 0" result="hardAlpha"/>
<feOffset dy="1"/>
<feGaussianBlur stdDeviation="1"/>
<feColorMatrix type="matrix" values="0 0 0 0 0.0627451 0 0 0 0 0.0941176 0 0 0 0 0.156863 0 0 0 0.06 0"/>
<feBlend mode="normal" in2="BackgroundImageFix" result="effect1_dropShadow_1287_2295"/>
<feColorMatrix in="SourceAlpha" type="matrix" values="0 0 0 0 0 0 0 0 0 0 0 0 0 0 0 0 0 0 127 0" result="hardAlpha"/>
<feOffset dy="1"/>
<feGaussianBlur stdDeviation="1.5"/>
<feColorMatrix type="matrix" values="0 0 0 0 0.0627451 0 0 0 0 0.0941176 0 0 0 0 0.156863 0 0 0 0.1 0"/>
<feBlend mode="normal" in2="effect1_dropShadow_1287_2295" result="effect2_dropShadow_1287_2295"/>
<feBlend mode="normal" in="SourceGraphic" in2="effect2_dropShadow_1287_2295" result="shape"/>
</filter>
<filter id="filter2_b_1287_2295" x="-2" y="13" width="42" height="26" filterUnits="userSpaceOnUse" color-interpolation-filters="sRGB">
<feFlood flood-opacity="0" result="BackgroundImageFix"/>
<feGaussianBlur in="BackgroundImageFix" stdDeviation="2.5"/>
<feComposite in2="SourceAlpha" operator="in" result="effect1_backgroundBlur_1287_2295"/>
<feBlend mode="normal" in="SourceGraphic" in2="effect1_backgroundBlur_1287_2295" result="shape"/>
</filter>
<linearGradient id="paint0_linear_1287_2295" x1="19" y1="2" x2="19" y2="34" gradientUnits="userSpaceOnUse">
<stop stop-color="white"/>
<stop offset="1" stop-color="#D0D5DD"/>
</linearGradient>
<linearGradient id="paint1_linear_1287_2295" x1="15" y1="26" x2="23" y2="10" gradientUnits="userSpaceOnUse">
<stop stop-color="#53389E"/>
<stop offset="1" stop-color="#6941C6"/>
</linearGradient>
<clipPath id="clip0_1287_2295">
<path d="M3 14.8C3 10.3196 3 8.07937 3.87195 6.36808C4.63893 4.86278 5.86278 3.63893 7.36808 2.87195C9.07937 2 11.3196 2 15.8 2H22.2C26.6804 2 28.9206 2 30.6319 2.87195C32.1372 3.63893 33.3611 4.86278 34.1281 6.36808C35 8.07937 35 10.3196 35 14.8V21.2C35 25.6804 35 27.9206 34.1281 29.6319C33.3611 31.1372 32.1372 32.3611 30.6319 33.1281C28.9206 34 26.6804 34 22.2 34H15.8C11.3196 34 9.07937 34 7.36808 33.1281C5.86278 32.3611 4.63893 31.1372 3.87195 29.6319C3 27.9206 3 25.6804 3 21.2V14.8Z" fill="white"/>
</clipPath>
</defs>
</svg>
